<?xml version="1.0" encoding="utf-8"?>
<!-- Generator: Adobe Illustrator 26.0.1, SVG Export Plug-In . SVG Version: 6.00 Build 0)  -->
<svg version="1.1" id="Layer_1" xmlns="http://www.w3.org/2000/svg" xmlns:xlink="http://www.w3.org/1999/xlink" x="0px" y="0px"
	 viewBox="0 0 74 74" style="enable-background:new 0 0 74 74;" xml:space="preserve">
<style type="text/css">
	.st0{fill:#1EB936;}
</style>
<g id="BG">
</g>
<g id="Layer_1_00000108284018731282818140000006724124632350568078_">
	<g>
		<path class="st0" d="M34.8,74c-1.4-0.2-2.8-0.3-4.2-0.6c-7.8-1.3-14.4-4.9-19.9-10.4C5.4,57.7,2,51.4,0.6,44
			C-3.1,23,10.1,5.5,28.1,1.1c10.7-2.6,20.6-0.7,29.8,5.4c1.4,0.9,1.8,2.6,0.9,4c-0.8,1.3-2.6,1.8-4,0.9c-2.6-1.6-5.2-3.1-8.1-4
			c-9.9-3-19.3-1.7-27.8,4.3C12.7,16,8.6,21.9,6.8,29.2C4.5,38.1,5.9,46.6,11,54.3c5.1,7.6,12.3,12.3,21.5,13.6
			c7,1,13.6-0.2,19.8-3.7c0.4-0.2,0.9-0.5,1.3-0.7c1.4-0.5,2.9,0.1,3.6,1.4c0.7,1.3,0.3,3-1,3.7c-1.6,0.9-3.2,1.8-4.9,2.5
			c-3.7,1.6-7.6,2.5-11.6,2.8c-0.2,0-0.4,0.1-0.6,0.1C37.7,74,36.3,74,34.8,74z"/>
		<path class="st0" d="M37.7,51.2c-2.4,0-4.2-0.7-5.7-2.2c-5-4.7-9.9-9.4-14.9-14.1c-1.3-1.3-1.4-3-0.2-4.2c1.2-1.2,2.9-1.2,4.3,0.1
			c4.8,4.6,9.7,9.1,14.5,13.7c1.3,1.2,2.2,1.2,3.3-0.2C48.6,32.1,58.4,20,68.2,7.8c0.6-0.7,1.1-1.5,2.1-1.8c1.1-0.3,2.3,0.1,3,1
			c0.7,0.9,0.8,2.2,0.2,3.2c-0.2,0.3-0.3,0.5-0.5,0.8c-10,12.4-20,24.9-30,37.3C41.6,50.2,39.7,51.1,37.7,51.2z"/>
		<path class="st0" d="M74,36.7c-0.1,8-2.2,14.6-6.1,20.6c-1,1.5-2.7,1.9-4.1,1c-1.3-0.8-1.7-2.6-0.8-4c2-3.1,3.5-6.4,4.4-10
			c1.2-5,1.2-9.9,0-14.9c-0.3-1.1-0.2-2.1,0.6-2.9c0.7-0.8,1.7-1.1,2.7-0.9c1.2,0.3,1.9,1,2.2,2.2C73.6,31,74,34.2,74,36.7z"/>
	</g>
</g>
</svg>
