<?xml version="1.0" encoding="utf-8"?>
<!-- Generator: Adobe Illustrator 26.0.1, SVG Export Plug-In . SVG Version: 6.00 Build 0)  -->
<svg version="1.1" id="Layer_1" xmlns="http://www.w3.org/2000/svg" xmlns:xlink="http://www.w3.org/1999/xlink" x="0px" y="0px"
	 viewBox="0 0 79 79" style="enable-background:new 0 0 79 79;" xml:space="preserve">
<style type="text/css">
	.st0{fill:#EB1E2D;}
</style>
<g id="BG">
</g>
<g id="Layer_1_00000084526075041973598300000012846048203408366006_">
	<g>
		<path class="st0" d="M0,70c0.2-0.3,0.5-0.5,0.7-0.8c4.7-4.7,9.4-9.4,14.2-14.2c0.2-0.2,0.4-0.4,0.6-0.5c0.5-0.3,1-0.3,1.4,0.1
			c0.4,0.4,0.5,0.9,0.2,1.4c-0.1,0.2-0.3,0.4-0.5,0.5C11.8,61.3,7,66.1,2.3,70.9c-0.9,0.9-1.5,0.9-2.3-0.1C0,70.5,0,70.2,0,70z"/>
		<path class="st0" d="M37,19.5c-1.6,0.2-3.3,0.3-4.9,0.6c-4.7,0.9-8.7,3.1-12.1,6.5c-2.7,2.8-5.5,5.5-8.2,8.2
			c-0.4,0.4-0.8,0.8-0.5,1.3c0.2,0.4,0.7,0.7,1.1,0.8c2,0.5,4,0.9,6,1.4c0.4,0.1,0.6,0,0.9-0.4c0.3-0.5,0.7-1.1,1.2-1.5
			c2.4-2.5,4.9-4.9,7.3-7.3c0.1-0.1,0.3-0.3,0.5-0.4c0.5-0.3,1-0.3,1.4,0.1c0.4,0.4,0.5,1,0.2,1.5c-0.1,0.2-0.4,0.4-0.6,0.6
			c-2.4,2.4-4.8,4.8-7.1,7.1c-1.3,1.3-1.7,2.8-1.2,4.5c0.2,0.5,0.5,1.1,0.8,1.4c4.3,4.4,8.6,8.8,13,13.1c1.9,1.9,4.5,1.8,6.5-0.2
			c7-7,14-14,21-21c0.2-0.2,0.4-0.4,0.5-0.5c0.6-0.5,1.2-0.5,1.7,0c0.5,0.4,0.5,1.1,0,1.7c-0.6,0.7-1.3,1.4-2,2
			c-0.6,0.5-0.7,1.1-0.7,1.8c0.5,7-1.6,13.3-6.3,18.5c-2.1,2.4-4.4,4.5-6.6,6.8c-1,1-2,2-3.1,3.1c-2.1,2-5.1,1.1-5.7-1.6
			c-0.5-2-1-4-1.4-6.1c-0.1-0.5-0.2-0.7-0.8-0.7c-0.8,0-1.6-0.2-2.6-0.3c-0.5,0.9-1.1,2-1.7,3c-0.8,1.5-2.5,2.1-4,1.6
			c-0.5-0.2-1-0.5-1.4-0.9c-2-1.9-3.9-3.9-5.8-5.8c-0.7-0.7-0.8-1.3-0.2-1.9c0.5-0.5,1.2-0.4,1.9,0.3c1.9,1.9,3.8,3.8,5.7,5.7
			c0.9,0.9,1.5,0.8,2.1-0.3c0.5-0.9,1-1.9,1.5-2.8c-4.5-4.5-8.9-8.9-13.4-13.4c-1,0.5-2.1,1.1-3.1,1.7c-0.7,0.4-0.8,1.1-0.1,1.7
			c1.1,1.1,2.2,2.2,3.3,3.3c0.2,0.2,0.4,0.4,0.5,0.6c0.4,0.5,0.3,1-0.1,1.5c-0.4,0.4-1,0.5-1.5,0.1c-1.5-1.4-3-2.9-4.4-4.5
			c-1.2-1.5-0.6-3.7,1.1-4.7c1-0.6,2.1-1.2,3.1-1.7c-0.2-1.1-0.3-2.1-0.5-3.2c-2.1-0.5-4.2-1-6.4-1.5c-1.4-0.3-2.4-1-2.8-2.4
			c-0.4-1.4,0.1-2.5,1.1-3.6c2.9-2.9,5.8-5.9,8.8-8.8c5.3-5.1,11.8-7.5,19.2-7.1c1,0.1,1.6-0.2,2.3-0.9c3.2-3.4,6.7-6.5,10.7-8.9
			c5.8-3.6,12-5.8,18.8-6.7c1.8-0.2,3.5-0.5,5.3-0.7c2.2-0.3,4.1,1.3,3.9,3.5c-0.7,7.3-2,14.4-5.5,21c-1.6,2.9-3.3,5.7-5.4,8.3
			c-0.6,0.7-1.2,0.9-1.8,0.4c-0.6-0.5-0.6-1.1,0-1.9c4-4.9,7-10.4,8.5-16.6c0.8-3.4,1.3-6.9,1.8-10.3c0.3-2.2,0.1-2.3-2.1-2.1
			C69.2,3.2,64,4,59,6.1c-5.7,2.4-10.8,5.8-15.2,10.2c-3.6,3.7-7.3,7.3-11,11c-0.2,0.2-0.4,0.4-0.6,0.6c-0.5,0.3-1,0.3-1.4-0.1
			c-0.4-0.4-0.5-0.9-0.2-1.4c0.1-0.2,0.3-0.4,0.5-0.6c1.8-1.8,3.6-3.6,5.4-5.4c0.2-0.2,0.3-0.4,0.5-0.5C37,19.6,37,19.6,37,19.5z
			 M59.5,41.9c-0.3,0.3-0.6,0.5-0.7,0.7c-5.3,5.3-10.5,10.5-15.8,15.8c-0.5,0.5-1.2,1-1.8,1.4c-0.3,0.2-0.4,0.4-0.3,0.8
			c0.5,2,0.9,4.1,1.4,6.1c0.1,0.4,0.5,1,0.8,1c0.4,0.1,0.9-0.2,1.2-0.5c2.8-2.8,5.6-5.6,8.4-8.4c2.2-2.2,3.9-4.8,5.1-7.6
			C59,48.3,59.6,45.3,59.5,41.9z"/>
		<path class="st0" d="M59.7,26.9c-4.1,0-7.6-3.4-7.5-7.6c0-4.1,3.4-7.5,7.5-7.5c4.1,0,7.6,3.4,7.5,7.6
			C67.2,23.5,63.9,26.9,59.7,26.9z M59.7,24.6c2.9,0,5.2-2.4,5.2-5.2c0-2.9-2.4-5.2-5.2-5.2c-2.9,0-5.3,2.4-5.2,5.3
			C54.5,22.3,56.9,24.6,59.7,24.6z"/>
		<path class="st0" d="M21.3,59.1c-0.3,0.4-0.4,0.8-0.6,1c-4.9,4.9-9.8,9.9-14.8,14.8c-0.6,0.6-1.3,0.6-1.8,0.1
			c-0.4-0.5-0.4-1.2,0.1-1.7c4.9-4.9,9.9-9.9,14.8-14.8c0.4-0.4,0.9-0.6,1.4-0.3C20.8,58.3,21,58.7,21.3,59.1z"/>
		<path class="st0" d="M9,78.9c-0.4-0.3-0.8-0.5-0.9-0.8c-0.1-0.3-0.1-0.8,0-1.2c0.1-0.2,0.3-0.4,0.5-0.6c4.6-4.6,9.3-9.3,13.9-13.9
			c0.2-0.2,0.4-0.4,0.6-0.5c0.5-0.3,1-0.3,1.5,0.2c0.4,0.4,0.4,0.9,0.1,1.4c-0.1,0.2-0.2,0.3-0.4,0.4c-4.7,4.7-9.5,9.5-14.2,14.2
			C9.8,78.5,9.5,78.6,9,78.9z"/>
		<path class="st0" d="M36.6,51.1c0,1.1-0.9,1.7-1.7,1.2c-0.2-0.1-0.4-0.3-0.5-0.4c-2.4-2.4-4.8-4.8-7.2-7.3
			c-0.3-0.3-0.6-0.8-0.5-1.3c0.1-0.9,1.2-1.2,1.9-0.6c0.7,0.7,1.4,1.4,2.1,2.1c1.8,1.8,3.6,3.6,5.4,5.4C36.3,50.6,36.5,51,36.6,51.1
			z"/>
		<path class="st0" d="M30,40c0.4,0.2,0.7,0.3,1,0.5c0.7,0.6,1.4,1.3,2,2c0.5,0.5,0.5,1.3,0.1,1.7c-0.5,0.5-1.2,0.5-1.7-0.1
			c-0.7-0.7-1.4-1.3-2-2.1c-0.2-0.3-0.3-0.9-0.2-1.2C29.2,40.5,29.6,40.3,30,40z"/>
	</g>
</g>
</svg>
