<?xml version="1.0" encoding="utf-8"?>
<!-- Generator: Adobe Illustrator 26.2.1, SVG Export Plug-In . SVG Version: 6.00 Build 0)  -->
<svg version="1.1" id="Layer_1" xmlns="http://www.w3.org/2000/svg" xmlns:xlink="http://www.w3.org/1999/xlink" x="0px" y="0px"
	 viewBox="0 0 79 79" style="enable-background:new 0 0 79 79;" xml:space="preserve">
<style type="text/css">
	.st0{fill:#EB1E2D;}
</style>
<g id="BG">
</g>
<g>
	<path class="st0" d="M75.3,39.2c-1.2,0-2.3,0-3.5,0c0-3.2,0-6.2,0-9.3c-0.1-2.4-1.1-4.4-3-6c-0.4-0.3-0.7-0.6-1-0.9
		c-7.3-7.3-14.7-14.7-22-22c-0.4-0.3-0.8-0.7-1.2-1c-0.3,0-0.6,0-1-0.1c-1.3,1.3-2.5,2.5-3.8,3.7c-0.5,0.5-0.9,1-1.4,1.6
		c-1.4-1.4-2.8-2.8-4.1-4.1C33.9,0.7,33.4,0.4,33,0c-0.3,0-0.6,0-0.9,0c-0.4,0.3-0.8,0.6-1.2,1C24,7.9,17.1,14.8,10.5,21.8
		c-0.3,0.3-0.7,0.5-1.1,0.5c-4.8,0.1-8.2,3.3-8.2,8.1c0,3.6,0,22,0,25.7c0,0.8,0,1.5,0,2.3c0,0.2,0.1,8.5,0.1,12.4
		c0,4.8,3.3,8.1,8,8.1c18.1,0,36.3,0,54.5,0c4.8,0,8.1-3.3,8.1-8.1c0-2.7,0-5.3,0-8c0-0.2,0-0.5,0-0.8c1.4,0,2.8,0,4.1,0
		c1.5,0,2-0.5,2-2c0-6,0-12.1,0-18.1C78,39.5,77.7,39.2,75.3,39.2z M44.2,4c6,6,12.1,12.1,18.2,18.1c-12.1,0-24.3,0-36.3,0
		C32,16.2,38.2,10,44.2,4z M32.7,3.9C32.7,3.9,32.8,3.9,32.7,3.9c1.2,1.2,2.3,2.3,3.4,3.3c-0.2,0.2-0.3,0.4-0.5,0.6
		C31,12.4,26.4,17,21.8,21.6c-0.4,0.4-0.7,0.6-1.3,0.6c-2,0-4.1,0-6.1,0C20.4,16.2,26.5,10.1,32.7,3.9z M68.8,71.1
		c-0.1,2.8-2,4.8-4.9,4.8c-18.3,0-36.5,0-54.8,0c-2.9,0-4.9-1.9-4.9-4.8c0-2.9,0-36.7,0-40.8c0-2.9,2.1-4.9,5.1-4.9
		c18.2,0,36.5,0,54.7,0c2.9,0,4.9,2,4.9,4.9c0,2.8,0,5.5,0,8.3c0,0.2,0,0.4,0,0.7c-0.4,0-0.7,0-1,0c-7.5,0-15.1-0.1-22.6,0
		c-6.2,0-11.2,5.1-11.3,11.2c0,6.4,5,11.6,11.5,11.6c7.4,0,14.9,0,22.4,0c0.3,0,0.5,0,0.9,0C68.8,65.1,68.8,68.1,68.8,71.1z
		 M74.8,58.9c-0.2,0-0.4,0-0.6-0.1c-9.6,0-19.3,0-28.9,0c-4.6,0-8.3-3.6-8.4-8.1c-0.1-4.6,3.5-8.3,8.1-8.5c0.2,0,0.5,0,0.8,0
		c9.4,0,18.7,0,28.1,0c0.3,0,0.6,0,0.9,0C74.8,47.8,74.8,53.3,74.8,58.9z"/>
	<path class="st0" d="M49.8,50.6c0,2.5-2.1,4.6-4.6,4.6c-2.6,0-4.7-2.1-4.6-4.7c0-2.5,2.1-4.6,4.6-4.6C47.8,46,49.8,48.1,49.8,50.6z
		 M46.7,50.6c0-0.8-0.7-1.5-1.5-1.5s-1.6,0.7-1.6,1.6c0,0.9,0.7,1.5,1.6,1.5C46.1,52.1,46.8,51.4,46.7,50.6z"/>
</g>
</svg>
